<svg xmlns="http://www.w3.org/2000/svg" viewBox="0 0 213.35 73.03"><defs><style>.cls-1{fill:#9f651c;}.cls-2{fill:#ecd4c2;}.cls-3{fill:#734605;}.cls-4{fill:#dd494e;}.cls-5{fill:#fff;}.cls-6{fill:#40210d;}</style></defs><title>樹懶咖啡</title><g id="著色層"><path class="cls-1" d="M93.73,38.38C91.59,39.66,90.3,42.32,88.4,44s-9.48,6.76-11.48,4.53a2.9,2.9,0,0,0-1.07-.78A12.58,12.58,0,0,0,76.09,45,2.83,2.83,0,0,0,76.94,43c.08-8.84-3-17.83-9.81-23.76a29.78,29.78,0,0,0-10.47-5.52c-2.49-.83-6.69-1.32-7.79-4-.73-1.82-.39-3.77-1.45-5.55a3,3,0,0,0-2.59-1.48c-3.1.08-4.16,2.49-4.44,5.2-.16-1.45.13-3.32-1-4.88a3.86,3.86,0,0,0-4.94-1.4C32.27,2.66,32.36,4.83,32.62,7c.1.75.23,1.49.39,2.23.1.29.18.53.25.75-1.5,1-4.59,1.26-6.35,1.75a2.84,2.84,0,0,0-1.52,1,3,3,0,0,0-.89.06c-8.92,2-13.57,13.52-15.91,21.35A71.38,71.38,0,0,0,5.87,53.79a1.37,1.37,0,0,0-1.32.07c-2.12,1.62-2.13,5-2.4,7.46a33,33,0,0,0-.4,7.42,1.6,1.6,0,0,0-.38,1,1.38,1.38,0,0,0,.54,1.12h0a1.53,1.53,0,0,0,1.5,1.5h.35a2.6,2.6,0,0,0,2,.67q16.91-1,33.82-1.61c11.48-.42,23.15-1.19,34.51.92,3.78.7,5.39-5.08,1.6-5.78-.43-.08-.86-.14-1.29-.21.65-2.19,1.19-4.41,1.65-6.66a4.09,4.09,0,0,0,.06-1c4.9,0,9.39-1.78,13.94-4.11s10.12-5.84,10.57-11.49C100.93,39.27,97.28,36.26,93.73,38.38ZM45.31,65.21a3.12,3.12,0,0,0-.63-1,4.12,4.12,0,0,0-5.11-.66,3.34,3.34,0,0,0-1.39,1.92l-2,.07A37.36,37.36,0,0,0,36,60.93c-.06-.41-.12-.83-.19-1.25,1.79.32,3.22,1.44,5.12,1.87a7.23,7.23,0,0,0,3.14-.06c.53-.12,1.26-.49,2-.7l1.35,4.35Zm20-14.93a22.55,22.55,0,0,1-6.7,2,2.93,2.93,0,0,0-2.36,1.41,23.17,23.17,0,0,0-6.59.51,2.32,2.32,0,0,0-1.21.63,11.33,11.33,0,0,0-5,.6c-1.58.41-1.69-.05-3.17-.76a11.46,11.46,0,0,0-4.24-1,8.2,8.2,0,0,0-4.78.77,5.39,5.39,0,0,0-2.06-1.77c-3.92-1.92-8.87-2.69-13.06-3.92-.1,0-.19,0-.28,0a44.86,44.86,0,0,1-.18-5.43c.19-7.19,1.72-17.12,8.3-21.39a2.9,2.9,0,0,0,1.32-3.1c.26-.09.52-.16.79-.23a2.66,2.66,0,0,0,1.57-.91,3.13,3.13,0,0,0,.84-.11c2.38-.65,6.57-1,9-2.51a12,12,0,0,0,6,1.15,3.12,3.12,0,0,0,1.73-.58c.09.07.16.14.26.21C48.7,18,53.11,18.68,56.7,20A20.75,20.75,0,0,1,67,28.36a3.11,3.11,0,0,0-.27,1.89c.5,3.2,1.78,6.23,2.6,9.35a3,3,0,0,0-.27.93A22.49,22.49,0,0,1,65.31,50.28Z"/><path class="cls-2" d="M49.37,26.17l.05,0h-.05Z"/><path class="cls-2" d="M66,36.15c-5.07-1.35-10,2-14.89,2.91-.62-.31-1.23-.62-1.86-.92a62,62,0,0,0-1.89-6.37l-.09-1a3.12,3.12,0,0,0-.64-1.66,2.32,2.32,0,0,0,1.67-1.31,8.31,8.31,0,0,1,.48-.94l.13-.18.17-.19c.1-.1.2-.2.31-.29h0l0,0,0,0c.32-.29.18-.08,0,0,.28-.11.64-.41.9-.53a3,3,0,0,0,1.46-3c1.47,0,3,.12,4.25.07,3.29-.13,3.77-4.52,1.43-5.7a2.55,2.55,0,0,0-1.92-.54c-5.85.53-11.74-.88-17.62-.77-3.76.07-9.4-.39-12.07,2.81A3,3,0,0,0,28,23.59c1.91.17,4.91-.15,6.56.83,2.25,1.34,2.16,3,2.26,5.67a36.86,36.86,0,0,1-.83,8,21.07,21.07,0,0,0-7.14-1,55.81,55.81,0,0,0-9.82,1c-2.13-1.38-5.43.84-4.47,3.49A2.54,2.54,0,0,0,14.1,44a9.48,9.48,0,0,0,4.08,4.87A9.33,9.33,0,0,0,21.24,50a2.79,2.79,0,0,0,2.39,1.33c.84,0,1.69,0,2.54,0a3.34,3.34,0,0,0,.69.3,33.11,33.11,0,0,0,12.47.73,2.8,2.8,0,0,0,1.12.8,2.84,2.84,0,0,0,2.7,1.75A13.29,13.29,0,0,0,46,54.35a3,3,0,0,0,.75.19c7.5.93,18.85-4.34,22.16-11.44C70.26,40.19,69.24,37,66,36.15Z"/><path class="cls-3" d="M36,29.28c-1.18-2.41-3.38-6.79-6.69-5.39-2.53-1.17-5.7-1.92-6.69.26l-.06.18a3.3,3.3,0,0,0-1.49.45c-1.31.75-1.7,2.28-1.64,4C18,30.32,16.83,32.3,17.18,34c0,.11-.07.21-.1.32A1.55,1.55,0,0,0,19,36.16c3.29,2,8.64,1.31,12.1,1.1a1.47,1.47,0,0,0,1-.43,1.2,1.2,0,0,0,1.16.12c2.1-.81,2.59-2.76,2.27-4.91,0-.24-.1-.48-.16-.71A1.56,1.56,0,0,0,36,29.28Zm-6.17.46a2.41,2.41,0,0,1,.28,1.08c0,.13,0,.22,0,.3a3.91,3.91,0,0,1-1.46-1A1.62,1.62,0,0,0,29.11,29c.17.11.34.22.5.34A3.79,3.79,0,0,1,29.79,29.74Z"/><path class="cls-3" d="M66.83,30.79c-2.39-5.41-7.58-10.14-12.78-7.52a1.37,1.37,0,0,0-1,0c-1.44.47-2.93,1.13-3.56,2.63a5.79,5.79,0,0,0-.29,2.76.58.58,0,0,1-.05.14,8.45,8.45,0,0,0,.16,6.49,3.31,3.31,0,0,0,3.13,1.86,1.78,1.78,0,0,0,.3.17c1.92.8,4.26.66,6.29.7s4.32.26,6.14-.64C68.06,36,68,33.36,66.83,30.79Z"/><path class="cls-4" d="M36.89,61.7a10,10,0,0,1,.32,1.44,1.5,1.5,0,0,0,1.84,1,1.53,1.53,0,0,0,1.05-1.84,8.81,8.81,0,0,0-.32-1.44,1.5,1.5,0,1,0-2.89.8Z"/><path class="cls-4" d="M44,63.64l1.25.74a1.52,1.52,0,0,0,2.2-1.7A8,8,0,0,0,47,61.19a1.53,1.53,0,0,0-1.84-1,1.5,1.5,0,0,0-1,1.84,9.49,9.49,0,0,1,.45,1.49l2.2-1.69-1.24-.74A1.5,1.5,0,0,0,44,63.64Z"/><path class="cls-5" d="M100.28,32.17a1.54,1.54,0,0,0-1.84,1,21.49,21.49,0,0,0-1.12,3.43c-.44,1.88,2.45,2.68,2.9.8A20.49,20.49,0,0,1,101.33,34,1.51,1.51,0,0,0,100.28,32.17Z"/><path class="cls-5" d="M107.89,40.79a1.51,1.51,0,0,0-1.84-1,9,9,0,0,1-3.12.58,1.5,1.5,0,0,0,0,3,11.64,11.64,0,0,0,3.92-.69A1.52,1.52,0,0,0,107.89,40.79Z"/></g><g id="圖層_1" data-name="圖層 1"><path class="cls-6" d="M65.92,50.38c3.18-.84,3.27-3,4.83-5.46a1.5,1.5,0,0,0,0-1.52c-.51-1-.15.76-.11.23a8.5,8.5,0,0,1,.51-1.24,1.49,1.49,0,0,0-.39-1.46c-.22-.23-.44-.45-.67-.66l.23,1.82c.18-.27.36-.53.53-.8a1.56,1.56,0,0,0-.54-2.06l-.75-.56.69,1.7a6.26,6.26,0,0,0-.32-2.32,5.09,5.09,0,0,0,.18-1.69c-.21-2-.92-4.67-2.65-5.8l.69,1.69a3.81,3.81,0,0,0,0-2.45c-.36-1.78.1.78-.27-.79a10.34,10.34,0,0,0-2.72-5.24c-1.31-1.48-2.56-2.89-4-4.25s-3-1.8-4.12-3.06a1.47,1.47,0,0,0-1.46-.39c-.8.28-3.66-.83-4.59-1.12a23.56,23.56,0,0,0-4.64-.66c-1.4-.16-2.59-.65-4-.68-1.25,0-3.57.67-4.41.31a1.56,1.56,0,0,0-1.81.23c-.14.13-.59.16-1.44.15a11.74,11.74,0,0,0-4.56.94,10.43,10.43,0,0,0-3,2.13,7.61,7.61,0,0,0-1.5.77,1.48,1.48,0,0,0-1.3.74l-.84.65a1.5,1.5,0,0,0-1.05,1c-.16.83-2,1.67-2.71,2.48s-1.33,2.92-2.1,3.39a1.5,1.5,0,0,0-.74,1.3c.09,1.06-.63.94-.92,1.72-.4,1.07-.26,2.39-.72,3.44-.33.74-1.11,1.05-1.35,1.83-.14.47.12,1.13,0,1.55-.3.86,1-.44-.05.37a1.58,1.58,0,0,0-.69,1.69c.43,1.87.57.25.05.69a1.51,1.51,0,0,0-.38,1.46c.51,2.44-.76,3.45.47,5.91.54,1.09-.31-.78.27,0,.19.27.21.73.44,1.06a6,6,0,0,0,1.88,1.71c.57.4,1.49.65,1.92,1,.73.58.67,1.4,1.82,1.9.46.19,1-.29,1.28-.18-.95-.32.06.38.16.41,1.2.26,1.64.64,2.95.43l-1.69-.68c.15.28.31.57.48.85a1.53,1.53,0,0,0,1.69.69s.65.18,1.75.38a4.11,4.11,0,0,0,2.57.08l-1.69-.69.82,1.06a1.49,1.49,0,0,0,1.46.38c2.71-.52,2.45.25,4.81.55,1,.13,2.49.1,3.71.17,1.49.07,2.87.22,4.42.2,1.06,0,2.78.08,4-.82l-1.81-.23c1.67,1.42,2.25.76,3.93.47.47-.09,1.66,0,2.2-.06,1.1,0,0,.15,1.07,0s3.33-.85,3.78-.89c1-.09,2.25.41,3.5-1.4l-1.69.68c2.46.81,3.31-.62,5.43-1.38s2.65-.52,4.15-2.47c1.17-1.53-1.43-3-2.59-1.51-.63.82-5.3,2.76-6.19,2.47a1.54,1.54,0,0,0-1.7.69c-.8,1.17,1.16-.32-.37-.07-.59.1-1.22.08-1.83.21C53,51.7,51.94,52,52,52c-1,.14-5.43.63-5.45.61a1.53,1.53,0,0,0-1.82-.24c-1,.74-4.12.19-5.4.07s-2.36.09-3.45,0a11.69,11.69,0,0,0-1.4-.4c-1.28-.14-.19.84-.87.16a1.48,1.48,0,0,0-1.46-.38c-.8.22-2.86-.4-2.52,0A1.58,1.58,0,0,0,28,51.2c-1.07.35-2.8-.78-4.32-.46l1.7.69c-.17-.28-.33-.56-.48-.85a1.56,1.56,0,0,0-1.69-.69c-1.13.18.75,0-.52-.36-.47-.15-.78-.53-1.32-.66-2.48-.58.66.92-1.22-.56-.88-.7-1.86-1.06-2.74-1.69-.52-.38-.89-.17-.85-1a1.47,1.47,0,0,0-.75-1.3c-1.18-.51-.52.55.05-.87.26-.66,0-1.18.08-1.84.16-1.58-.55-.49.09-1a1.48,1.48,0,0,0,.38-1.46c-.13-.51-.26-1-.38-1.54l-.69,1.7a4.11,4.11,0,0,0,1.77-2.54c.34-.94-.48-.47-.42-.66.13-.35.88-.83,1.08-1.3.94-2.26,1.05-4.25,2.17-6.38-.64,1.23.42-.58.95-1.29s1.39-2.35,1.72-2.68,1.34-.72,1.85-1.21.49-1.07.78-1.36c-.42.41,1.78-.64,1.33-.66a1.5,1.5,0,0,0,1.3-.74,21.79,21.79,0,0,0,2.08-2,11.18,11.18,0,0,1,3.65-.9c1.83-.28,3.11.21,4.62-1.23l-1.82.24c2.68,1.18,5.82.2,8.11.55,1.75.28,3.77.36,5,.6a29.2,29.2,0,0,1,5.94,1.63c.38.18.39.05,0-.14.55.28.87.91,1.39,1.25s1,.08,1.49.38a19.19,19.19,0,0,1,3.39,3.46,15.67,15.67,0,0,1,2.86,4.16,14.32,14.32,0,0,1,.73,3.05,1.54,1.54,0,0,0,.69,1.7c.47.31-.1-.22.21,1.05.18.73.43,1.47.62,2.21.36,1.41,0,0,.22.94,0,.17.35,2.26.35,2.22A1.59,1.59,0,0,0,68,41.26l.75.57-.53-2.06c-.17.27-.35.54-.53.8A1.51,1.51,0,0,0,68,42.39c.64.61.13-.33-.24.22a1.53,1.53,0,0,0,0,1.52s-.82,2.89-2.6,3.36A1.5,1.5,0,0,0,65.92,50.38Z"/><path class="cls-6" d="M23.47,23.94c1.42-1.3,7.34.75,9.11.95l-1.44-1.1a3.68,3.68,0,0,0,1.56,2.12c1.19,1,0-1.11.87.82a31.83,31.83,0,0,1,1.86,5.35c0,.12-.37,2.49-.37,2.5-.15.4-2.06,1.84-1.59,1.67-1.11.39-2.59-.1-3.64,0a9,9,0,0,1-1,.08c-1.5-.12,1.1.9-.09.06a1.53,1.53,0,0,0-1.82.23l-.75.59L28,37c-1.26-.94-2.29-.55-3.65-.75a36.87,36.87,0,0,0-3.7-.78c-.52,0-.84.2-1.11.17A15.07,15.07,0,0,1,17.1,35c-1.23-.34-1.79-1-3,.16-1.42,1.32.71,3.44,2.12,2.12-.51.47-1.69-.25-.31.54a8.93,8.93,0,0,0,1.95.45A14.43,14.43,0,0,0,20,38.8c.38,0,.89-.47,1.17-.41.89.19,1.38.82,2.43.89s1.85-.49,2.85.26a1.51,1.51,0,0,0,1.82-.23l.75-.59L27.25,39l.7.49a1.48,1.48,0,0,0,1.52,0c.8-.53-.76.15,1,.18a11.93,11.93,0,0,0,2.25-.17,9.15,9.15,0,0,0,2.21-.6c2.68-1.09,3-3.21,3.24-5.63a14.79,14.79,0,0,0-1.13-6.49,7.17,7.17,0,0,0-1-2.31,6.56,6.56,0,0,0-1.43-1.16c-1.09-.82-.24.85-.65-.28a1.59,1.59,0,0,0-1.45-1.1c-3.55-.4-8.25-2.79-11.23-.07-1.43,1.3.69,3.42,2.12,2.12Z"/><path class="cls-6" d="M61.46,20.8c-1.07.41.45.15-.09.15-.25,0-.62-.27-.92-.3a12.75,12.75,0,0,0-2.17.27,13.9,13.9,0,0,1-3.05.21,1.49,1.49,0,0,0-1.46.38c-.48.4,1-.1-.5,0a8.07,8.07,0,0,0-2.6.69,7,7,0,0,0-2.91,2.65c-.54,1.08-1,2.45-1.47,3.59-.72,1.7-.18,3.38-.68,4.65A1.5,1.5,0,0,0,46,34.51c.88,1,.8,2.37,2,3.44,1.33,1.24,2,1.15,3.72,1.32A27,27,0,0,0,55,39.7a10.91,10.91,0,0,0,1.21-.23,8.26,8.26,0,0,1,2.39.15A1.52,1.52,0,0,0,60,39.23l.65-.6-1.82.23c1.62.72,2.75.64,3.93-.77L61,38.32c.27.16.55.31.83.46a1.56,1.56,0,0,0,1.81-.23c1-.79-1.3.56.36.07a15,15,0,0,1,1.44-.46c1.19-.25-.9.09.26-.19.82-.18,1.38.11,2.23-.24,1.76-.74,1-3.64-.8-2.9-2,.85-3.74.14-5.61,1.6l1.82-.24-.83-.46a1.51,1.51,0,0,0-1.81.24c-.48.57.34.59-.3.3a1.56,1.56,0,0,0-1.81.24c-1,1,1.16-.23,0,0a5.38,5.38,0,0,1-1.33-.06,9.22,9.22,0,0,0-1.66-.1,5.6,5.6,0,0,1-1.89.11c-1-.12-1.84-.1-2.8-.2-1.26-.13.74.55-.35-.11a4.77,4.77,0,0,1-1.06-.78,10.78,10.78,0,0,1-.72-2.27c-.26-1.07.09.77,0,.17a10.58,10.58,0,0,1,0-1.49,6.7,6.7,0,0,1,1-3.07c.38-.78.55-1.95,1-2.66.6-1-.66.57.08-.16A6.87,6.87,0,0,1,52,25.08a7.59,7.59,0,0,1,1.85-.56c.47-.12,2.84-.71,1-.36,1.22-.23,2.82,0,4.1-.21,1-.15,1.92.29,3.33-.26,1.78-.69,1-3.59-.8-2.89Z"/><polygon class="cls-6" points="30.55 29.91 30.36 30.67 29.79 31.21 29.04 31.42 28.28 31.21 27.72 30.66 27.52 29.91 27.73 29.15 28.28 28.6 29.04 28.38 29.79 28.6 30.34 29.15 30.55 29.91"/><polygon class="cls-6" points="55.53 29.91 55.34 30.67 54.77 31.21 54.02 31.43 53.27 31.21 52.7 30.67 52.51 29.91 52.72 29.15 53.27 28.6 54.02 28.38 54.78 28.6 55.33 29.15 55.53 29.91"/><polygon class="cls-6" points="42 36.43 41.23 35.76 40.66 35.25 40.14 34.7 39.76 34.04 39.58 33.31 39.76 32.7 40.2 32.26 40.81 32.1 41.56 32.33 42 32.99 42.42 32.33 43.18 32.09 43.8 32.25 44.26 32.7 44.43 33.32 44.23 34.05 43.84 34.69 43.35 35.27 42.8 35.79 42 36.43"/><path class="cls-6" d="M42.06,40.82a1,1,0,0,1-1-1c0-.14,0-.21,0-.27a3.81,3.81,0,0,1,0-.41A.76.76,0,0,0,41,39a2.67,2.67,0,0,1,0-.5,2.23,2.23,0,0,1,.09-.63,2.39,2.39,0,0,1-.12-.73c0-.12,0-.18,0-.24a4.1,4.1,0,0,1,0-.43,1.84,1.84,0,0,1,.15-.74,1.66,1.66,0,0,1-.11-.63,1,1,0,0,1,2,0,2.22,2.22,0,0,1,.1.68,1.84,1.84,0,0,1-.15.74c0,.07,0,.13,0,.19a4.1,4.1,0,0,1,0,.43,1.8,1.8,0,0,1,.13.68,2.23,2.23,0,0,1-.09.63,1.46,1.46,0,0,0,0,.22,2.76,2.76,0,0,1,0,.5c0,.14,0,.21,0,.28a3.45,3.45,0,0,1,0,.4A1,1,0,0,1,42.06,40.82Z"/><path class="cls-6" d="M42.05,43a1.28,1.28,0,0,1-1.19-.72l-.21-.19-.29-.24-.19-.16a3.17,3.17,0,0,1-.35-.28l-.21-.16L39.28,41a4.58,4.58,0,0,1-.33-.34l-.16-.16A1,1,0,1,1,40.12,39a2,2,0,0,1,.33.33l.16.16.21.17.33.27.19.15c.09.07.18.13.35.28l.23.2.07.06.19-.16.19-.14a3.71,3.71,0,0,1,.28-.25l.23-.2a2.25,2.25,0,0,1,.44-.33.38.38,0,0,0,.11-.08,1.64,1.64,0,0,0,.19-.19l.3-.28a1,1,0,1,1,1.34,1.48,1.64,1.64,0,0,0-.19.19l-.3.28a1.89,1.89,0,0,1-.44.32l-.11.09-.28.25a1.49,1.49,0,0,0-.23.2c-.17.15-.26.21-.35.28l-.1.08a1.26,1.26,0,0,1-1.2.85Z"/><path class="cls-6" d="M8,70.61c.41-.85.25-2.1.7-2.51a1.47,1.47,0,0,0,.38-1.46L9,66.36a1.53,1.53,0,0,0,0-1.52c-.23-.31-.64-2.71,0-3.2a1.5,1.5,0,0,0,0-2.12c-.78-.67,0,.31.09-1.07.07-.63.06-1.15.08-1.8s.08-1.26.08-1.87c0-1.59-1.13.76,0-.35a1.52,1.52,0,0,0,0-2.12l-.79-.74v2.12L9,53a1.56,1.56,0,0,0,.23-1.82c-.32-.56-.06-1.88-.61-2.89l-.23,1.82a4.89,4.89,0,0,0,.16-6.44v2.12a6,6,0,0,1,.72-.7,1.49,1.49,0,0,0,.38-1.46,6.93,6.93,0,0,1-.09-1.44c-.13-1.7-.91.75-.1-.29a1.53,1.53,0,0,0,0-1.52c-.44-.81-.43.81,0,.07a1.48,1.48,0,0,0,0-1.52c-.39-.67-.24.22.23-.31a1.49,1.49,0,0,0,.38-1.46c-.3-.8-.7.7-.06,0a1.51,1.51,0,0,0,.23-1.81c-.17-.29-.35-.57-.52-.85l-.23,1.81a7.48,7.48,0,0,0,1.43-3.64c-.41,1.71.42-1.92.86-2.16a1.5,1.5,0,0,0,.74-1.29c0-.9.89-3.45,1.51-3.71a1.55,1.55,0,0,0,1-1.85c-.2-.71.05-.08.79-1.1,1.11-1.55-.52.59.58-.66a17.78,17.78,0,0,1,3.38-3.39c1.89-1.24,1.62-1.48,3.13-2.15.57-.25,1-.34,1.65-.66.36-.18,1.15-.7,1.6-.87,1-.38-1.35-.31-.05.07a1.53,1.53,0,0,0,1.7-.69c.37-.72,2.74-.5,3.91-.83,2.06-.6,3.74-1,3.74-3.6,0-1.48-1.28-2.92-1.53-4.06s-.22-.14,0-1a7.64,7.64,0,0,1,1-2.56l-2.06.54q.48.26,1,.48A1.57,1.57,0,0,0,35.71,3c-.64.51.56-.09,1.2.29s.43.19,0-.2a8.74,8.74,0,0,1,.48,1.47c.38,1,1.06,1.1,1.32,2.43.12.63.16,1.86.23,2.58.21,1.87,3.08,2,3,0,0-1.12.59-1.67.88-2.63s-.48-.39-.18-1.09a11.24,11.24,0,0,1,2.71-2.29A1.55,1.55,0,0,0,46.48,5c1.11.22-.3-.37,0,.88a6.14,6.14,0,0,0,.9,2.35l.24-1.82-.69.85a1.58,1.58,0,0,0-.23,1.82c1,1.78.88,2.78,3.07,3.7a4.58,4.58,0,0,0,4.3.09l-1.82-.24A24.16,24.16,0,0,0,55,14.52a1.51,1.51,0,0,0,1.51,0l.94-.41-2.05-.54c.15.28.29.57.43.86a1.55,1.55,0,0,0,1.69.69l.86-.17-1.7-.69c.76,1,2.66,1.53,3,2.11a1.51,1.51,0,0,0,1.69.69l1-.26-1.85-1.05c.07.36.14.72.2,1.09a1.51,1.51,0,0,0,1.45,1.1c.5,0,1,.71,1.45,1,.15.09,1.17.26.69-.09s.27.84.4.92c2,1.24,1.24,1.06,3.24,1.81l-1.1-1.44a3.42,3.42,0,0,0,.68,2.09c.25.33.87.41,1.09.7.56.7.31-1.34,0,.1a1.57,1.57,0,0,0,.69,1.7c1.38,1,2.07,3.42,2.7,4.88,1,2.29.92,5.4,2.77,7.35l-.24-1.82-.58.84a1.52,1.52,0,0,0,.53,2c.94.71-.49-.95-.3.8A5.11,5.11,0,0,0,75,41l.24-1.82a3.77,3.77,0,0,0,.71,5.8l-.69-1.69c-.38,1.53,0,4.4,1.19,5.56s3.28.86,4.82.86c3.76,0,5.37-3,8.41-4.58a1.5,1.5,0,0,0,.74-1.3c-.06-.85-.33,0,.32-.21a1.55,1.55,0,0,0,1-1.84c-.21-1.07-1,.22-.19.14A1.59,1.59,0,0,0,93,40.81c.57-1.6,3.4-.6,4.55.11s-.74-1,.33.3a18.89,18.89,0,0,1,1.75,2.38l.23-1.82c-.25.24-.5.47-.77.69a1.5,1.5,0,0,0-.23,1.81c.18.27.35.54.52.82l.54-2.05c-1.26.8-1.08,1.75-2.09,2.57a1.49,1.49,0,0,0-.39,1.46c.1.34.18.69.27,1l.69-1.7a5.77,5.77,0,0,1-1.67,1,1.48,1.48,0,0,0-1,1c-.9,2.83-5,2.08-5.94,5.19l1.45-1.1A2.32,2.32,0,0,1,90,52.44a1.52,1.52,0,0,0-1.69.69c-.42.84.88.08.08,0a1.46,1.46,0,0,0-1.29.74c.16-.29-1.1.16-2.14.44-1.54.42.67-.15-.24.16-.38.13-1.24.24-1.65.32-2.21.41-6.15,1-7.26,3.24l1.69-.69c-.3-.07-.6-.12-.9-.16a1.58,1.58,0,0,0-1.85,1c-.32.79.44-.2-.28.26a1.56,1.56,0,0,0-.69,1.69c.09.42-.64,1.69-.67,2.56a1.51,1.51,0,0,0,.74,1.3l1,.59L74.09,63A6.73,6.73,0,0,0,74,64.9c0,.35.25.34.25-.12A4,4,0,0,1,73.83,66a1.49,1.49,0,0,0,.38,1.46c.4.41.77.81,1.14,1.24l-.23-1.82c-.21.31-.43.62-.65.92a1.46,1.46,0,0,0,0,1.52,9.07,9.07,0,0,1,.8,1.3,1.5,1.5,0,0,0,2.59-1.52c-.57-1-.65,0-.15-.7a1.53,1.53,0,0,0-.24-1.82c-1.37-1.61-.42.49-.28-1.19,0-.41,0-.8,0-1.17,0-1.25-.52.64-.18-.45a1.51,1.51,0,0,0-.69-1.69c-.7-.44-.16.84.46-.85a3,3,0,0,0-.13-1.81l-.68,1.7a3.26,3.26,0,0,0,1.65-2l-1.84,1c.3,0,.61.09.91.15a1.53,1.53,0,0,0,1.69-.69c.21-.42,5.6-2.14,6.35-1.89a1.49,1.49,0,0,0,1.46-.38c.58-.62.42-.37,1.73-.35a1.5,1.5,0,0,0,1.29-.75c.48-.82-.85,0,0,0a1.44,1.44,0,0,0,1.29-.74l.41-.82-1.7.69a5.22,5.22,0,0,0,2.08.19,1.58,1.58,0,0,0,1.45-1.1c.35-1.16,3.55-1.83,4.59-3,.48-.52.78-1.4,1.22-1.84-1.42,1.46,1.3-.51,1.45-.61a1.52,1.52,0,0,0,.69-1.69,6.74,6.74,0,0,1,.83-1.68,1.53,1.53,0,0,0,.54-2c-.16-.28-.34-.55-.52-.82l-.24,1.82c.27-.22.52-.45.77-.69a1.53,1.53,0,0,0,.24-1.82c-1.27-2.32-3.3-5-6.07-5.54A5.92,5.92,0,0,0,90.13,40l1.45-1.1c-2.39.25-3.15,1.34-2.71,3.65l1-1.84a9.76,9.76,0,0,0-1.85.8,1.48,1.48,0,0,0-.74,1.3c.06.87.34-.27-.42.61a9.48,9.48,0,0,1-1.17.89A11.94,11.94,0,0,1,83,46.13c-2.45,1-5.66,1.26-4.85-2.06a1.56,1.56,0,0,0-.69-1.69.81.81,0,0,1-.1-1.09,1.54,1.54,0,0,0,.23-1.81c-.67-1.09.33-2.55-1.63-4l.54,2,.58-.84a1.53,1.53,0,0,0-.23-1.82c-1.4-1.47-1.32-5.39-2.18-7.32-.16-.36-.82-.63-.88-.77-.41-.77-.47-1.71-.88-2.46-.2-.37-1.36-1.13-1.07-.83a5.64,5.64,0,0,0-1.07-1.31l.69,1.69a3,3,0,0,0-.14-2.54c-.68-1.23-1.45-.81-1.49-1.15a1.59,1.59,0,0,0-1.1-1.45,6.36,6.36,0,0,1-2.48-2.07,1.49,1.49,0,0,0-1.29-.74c-1,.12.56,0-.95-.5a6.26,6.26,0,0,0-1.86-.45L63.57,16c-.06-.36-.13-.73-.2-1.09a1.51,1.51,0,0,0-1.84-1l-1,.27,1.69.69c-.49-.93-.83-1-1.62-1.58a8.26,8.26,0,0,0-1-.51c-.85-.47.35.91-.37,0a1.58,1.58,0,0,0-1.69-.69l-.85.16,1.69.69c-.14-.28-.28-.57-.43-.85a1.53,1.53,0,0,0-2-.54c-.14.06-.8-.19-1.61-1a1.54,1.54,0,0,0-1.81-.23c-1.12.53.55.06-.37-.12a3.91,3.91,0,0,1-1.58-.46c-.79-.55-.83-1.26-1.32-2.13L49,9.41c.24-.28.46-.56.69-.85a1.56,1.56,0,0,0,.23-1.82c-.87-1.28.38-4-2.66-4.6l1.1,1.45c0-.45-.1-.88-.18-1.32a1.5,1.5,0,0,0-1.05-1C41.71,0,38.78,4.74,39,9.6h3C41.81,8,42,7.05,41.74,5.52s-1.74-2.27-2-3.73a1.5,1.5,0,0,0-1-1C36.8.11,35.3-.48,33.59.91L35.4.67c-.32-.15-.64-.31-.95-.48A1.53,1.53,0,0,0,32.4.73,8.57,8.57,0,0,0,30.74,5C30.73,6.61,32,7.72,32,9.13c0,1.6.45-.18-.58,1a4.4,4.4,0,0,1-1.52.65c.59-.11.26-.17-.18-.09-2,.33-3.41,0-4.45,2L27,12l-.85-.25a1.51,1.51,0,0,0-1.46.39c-.8.8-2.48,1.09-3.47,1.55a6.9,6.9,0,0,0-1.47.73c-.18.19-1.29,1.7-.5,1.23.62-.36-.82-.28-1.16-.11a6.71,6.71,0,0,0-2,1.86c-.76.86-1.13,2-2.18,2.47a1.52,1.52,0,0,0-.74,1.3c-.17,1.41.53-1.25-.12-.1-.18.31-.59.47-.74.85a3.15,3.15,0,0,0-.05,2.54l1.05-1.85c-2.16.91-2.6,2.68-3.4,4.74-.56,1.45-.33.22-.83,1.41-.26.63-.64,2.41-.85,2.61a1.46,1.46,0,0,0-.38,1.46c.24.59,0,.88-.4,1.36A1.56,1.56,0,0,0,7.15,36c.17.29.35.57.52.85l.24-1.82-.61.63a1.49,1.49,0,0,0-.39,1.46c.39,1.05,0-1.23-.3.62-.12.72,0,1.47-.06,2.06s-.07-.89,0-.41c0,.22-.34.63-.32.93.13,1.69.56.06.06.71a1.46,1.46,0,0,0,0,1.51c.3.45.18.34.18.91,0,1.28.9-.87-.07.16a1.53,1.53,0,0,0,0,2.12c.74.78-.11-.53-.17.7,0,.74.48,1,0,1.5A1.53,1.53,0,0,0,6,49.78c.45.84,0,1.85.61,2.9l.24-1.82c-.21.23-.41.47-.61.71a1.53,1.53,0,0,0,0,2.12l.79.74V52.31c-1.59,1.58-.73,2-.67,3.73,0-.49-.12.73-.31,1.32,0-.08-.39,1.64-.5,2.08A1.5,1.5,0,0,0,6,60.9l.86.74V59.52c-2,1.68-1.18,3.78-1.05,5.91A5.71,5.71,0,0,0,6,66.49c-.22.6-.55,2.49-.61,2.61C4.59,70.83,7.18,72.35,8,70.61Z"/><path class="cls-6" d="M98.26,38c.08-.37.15-.75.21-1.12.09-.62,0-.43.14-.72s.17-.13.43-.61c.09-.18.4-1.11.27-.84A1,1,0,0,1,99.9,34c-.28.16.47-.19.63-.3a2.42,2.42,0,0,0,.44-.35c.37-.38-.27,0-.14.07s.89-.24,1-.25l-1.46-.38c.09.07.44.25.47.36-.38-1.37,0,.06,0,.09,0-.43,0,.46,0,.44-.07-.42.22-.71-.11,0A19.75,19.75,0,0,1,100,35.9a3.6,3.6,0,0,0-.74.72,4.78,4.78,0,0,0-.44,1.16c-.24.81-.2.06.09,0-.13,0-.42.33-.5.42a4.68,4.68,0,0,0-.65,1.35c-.71,1.79,2.19,2.57,2.89.79.09-.24.49-.74.1-.34s.28-.07.37-.18a3.93,3.93,0,0,0,.63-1.36c.2-.64.5-.5,0-.11a3.31,3.31,0,0,0,.5-.41,4.15,4.15,0,0,0,.83-1.36c.17-.47.19-1,.34-1.48-.12.37.2-.41.2-.41a3.07,3.07,0,0,0,.26-.88,3.41,3.41,0,0,0-1.15-3,2.61,2.61,0,0,0-3-.12,6.35,6.35,0,0,0-2.24,1.6,4.94,4.94,0,0,0-.88,1.31c-.09.19-.07.44-.17.63.22-.4-.29.28-.31.32a7.44,7.44,0,0,0-.65,2.6c-.4,1.89,2.49,2.69,2.89.8Z"/><path class="cls-6" d="M101.32,42.53a6.51,6.51,0,0,1,2.36-1.33,5.43,5.43,0,0,1,.68-.13l.46-.09c.41-.07-.35,0,.05,0a7.55,7.55,0,0,0,1-.15c.2,0,.82-.13.2-.17s-.08.08.07.14l-.9-.69a6.5,6.5,0,0,0,.66.9c.15.25.17.21,0-.14s-.09-.41-.09-.11c0,0,0,.77,0,.21l-.06.42c-.09.39,0,.28.28-.33,0,0-.44.46-.44.46s1-.44.13-.13a4.27,4.27,0,0,0-.65.29c-.21.11-.38.3-.58.39.39-.18-.14,0-.28,0l-.44.11c-.45.1.22,0-.39.07a9.44,9.44,0,0,0-1.3.07c-.19,0-.37.14-.56.19.47-.13-.27,0-.39,0-1.91.14-1.93,3.14,0,3a9.75,9.75,0,0,0,1.42-.22c.29-.07.3-.09,0,0h.47l.45,0a6.09,6.09,0,0,0,2.67-.7c.56-.38,0-.1.35-.26.15-.08.32-.13.48-.2a3.26,3.26,0,0,0,1.21-1,4.18,4.18,0,0,0,.56-3,4,4,0,0,0-2-2.22,2.41,2.41,0,0,0-1.73.08c.42-.13-.21,0-.3,0l-.84.13a8.6,8.6,0,0,0-2.55.89c.38-.19-.21.08-.3.11a6.54,6.54,0,0,0-.65.32,7.63,7.63,0,0,0-1.21,1c-1.43,1.31.7,3.42,2.12,2.12Z"/><path class="cls-5" d="M97.4,34.63A1.52,1.52,0,0,0,96,32.74l-.37,0a1.93,1.93,0,0,0-1.75-1,41.47,41.47,0,0,0-5,.42A1.49,1.49,0,0,0,88.33,35a1.52,1.52,0,0,0,0,.43c.3,2.35.94,5.52,3,7.08A3,3,0,0,0,95.66,42a1.33,1.33,0,0,0,.45-.71c0-.09.1-.16.14-.25a8.77,8.77,0,0,0,.53-3.43c0-.37.07-.74.09-1.12C97.09,35.82,97.26,35.15,97.4,34.63Z"/><path class="cls-6" d="M87.41,30.23l-.71.2a1.54,1.54,0,0,0-1,1.84c.06.34,0,.89.06.11,0,.33-.22.58-.24.93a3.82,3.82,0,0,0,.27,1.46c.26.76,0,.44.1-.28a5.77,5.77,0,0,0-.17.94,8.66,8.66,0,0,0,.15,1.22,12.51,12.51,0,0,0,.66,2.84c.22.69.2,1.84.49,2.64.72,2,2.83,2.69,4.53,3.13a6.27,6.27,0,0,0,3.13.09c.47-.09.6-.16.09-.09.26,0,.68,0,1,0a6,6,0,0,0,1.49-.42,1.59,1.59,0,0,0,1.1-1.45c0-.3.14-.8,0-.26.09-.29.29-.54.4-.83a9.45,9.45,0,0,0,.35-2c.06-.47.17-.78.21-1.27,0-.11.12-1.09,0-.51s.26-.36.29-.47c.31-1.14-.06-2.11,0-3.21s.26-2.21-.48-3.21a4.3,4.3,0,0,0-3-1.59c-.61-.05-1.11.17-1.63.16-.25,0-.78-.22-1.17-.26a10.39,10.39,0,0,0-1.68.15c-1,.06.68-.06-.25-.08a5.32,5.32,0,0,0-1-.06c-.14,0-1.51.62-.46.42.89-.17-.08-.17-.33-.17s-.65.15-.94.14.61.17-.26-.14c-1.82-.65-2.61,2.25-.8,2.89a3.77,3.77,0,0,0,1.69.2c.89,0-.72,0,.24-.06.25,0,.51.1.78.06a1.93,1.93,0,0,0,.73-.29c.91-.54-1-.3-.12,0a3.63,3.63,0,0,0,1.67,0c.92-.1-.34-.19.7.1a4.31,4.31,0,0,0,1.52.1c.25,0,.51-.09.76-.12.93-.08-.75-.1.23,0,.23,0,.44.1.67.12,1.21.09-.72-.47-.06-.07.14.09.43.35.42.54.06-.83-.11.11-.13.29,0,.44-.08.86-.08,1.3a6.28,6.28,0,0,0,.1,1.37c.2,1,.14-.16-.11.74A25,25,0,0,0,96,40.24c-.16,1.1-.65,2-.72,3.16L96.36,42a21.82,21.82,0,0,1-2.59.49c-1,.26.28.1-.71.1s.31.12-.63-.16a8.22,8.22,0,0,1-2-.66c-.86-.54-.61-.68-.78-1.65a11.59,11.59,0,0,0-.81-2.41c.32.77,0-.29,0-.65s-.06-.86-.1-1.29c-.09-1,.1.37,0-.63,0-.62-.28-1.08-.37-1.67.1.69.19,0,.23-.34a5.12,5.12,0,0,0-.09-1.61l-1,1.84.71-.2A1.5,1.5,0,0,0,87.41,30.23Z"/><path class="cls-6" d="M86.74,31.85a11.62,11.62,0,0,0-4.5.64,3.84,3.84,0,0,0-1.67,2.43,3.19,3.19,0,0,0-.13,1.53c.25,1.37.26-.7.06.52a2.26,2.26,0,0,0,.24,1.59c.06.11.24.67.12.23.06.21,0,.44.12.65a5.35,5.35,0,0,0,1.77,2.07c1.25,1.14,3.77,1.23,5.29.63,1.78-.69,1-3.6-.79-2.89a2.49,2.49,0,0,1-1.55.19,6.25,6.25,0,0,1-.87-.08c.42.09-.21-.07-.21-.1-.06-.28.56.62.16,0a2.58,2.58,0,0,0-.78-.65c-.4-.24-.51,0,.06.17a1.88,1.88,0,0,1-.28-.43c0,.37,0-.16,0-.26a3.3,3.3,0,0,0-.2-.61c-.1-.24-.26-.48-.38-.72L83.35,38a3.55,3.55,0,0,0,0-2.3c.18.45-.22.77.1.2.14-.25-.09.2.07-.2s.3-.63.44-.95l-.9.69a8.93,8.93,0,0,1,3.7-.54c1.93,0,1.94-3,0-3Z"/><path class="cls-6" d="M88,23.5a3.06,3.06,0,0,0-.55,2,.52.52,0,0,0,.36.49c.13,0,.35.15.47.13s-.1-.27,0,0a4.52,4.52,0,0,0,.44.76c.21.34.13-.17,0,0s0,.35-.07.5-.25.37-.38.55c-.38.51.48,1,.86.5a2,2,0,0,0,.48-1.91,3,3,0,0,0-.57-1,1.73,1.73,0,0,0-1-.46l.37.48a4.93,4.93,0,0,1,0-.94q0-.26,0,.06l.14-.22a3.42,3.42,0,0,0,.26-.4c.35-.54-.51-1-.86-.51Z"/><path class="cls-6" d="M92.32,23.47c-.61.79-1.27,1.88-.19,2.58a5.44,5.44,0,0,0,.62.39c.37.18.07.17.06-.09a4.42,4.42,0,0,0,.1.5c0,.12,0,.08,0-.12l0,.25c0,.13,0,.27-.08.4l-.3.55c-.3.56.56,1.07.87.5.39-.74.94-2,.17-2.69a2.84,2.84,0,0,0-.56-.33c-.27-.17-.56-.3-.48-.4-.07.09-.06.41.08,0,.05-.14.07-.29.12-.43-.11.32,0,.06.06-.05l.28-.36c.39-.5-.31-1.21-.71-.71Z"/><path class="cls-6" d="M96.32,23.47c-.36.72-.93,2-.08,2.51l.53.36c.14.1.23.33.11.05a1.42,1.42,0,0,1,.08.41,2.79,2.79,0,0,1,0,.61c0,.16.15-.15-.09.1a2.7,2.7,0,0,0-.25.34c-.38.53.49,1,.86.51a2.14,2.14,0,0,0,.18-2.58,2.56,2.56,0,0,0-.52-.46,1.22,1.22,0,0,0-.37-.2l-.1-.06c.16.26.21.29.16.07s0-.48.09-.66c-.09.39,0,0,.08-.07s.14-.29.21-.43c.29-.57-.57-1.08-.86-.5Z"/><path class="cls-6" d="M37.43,66.66c.65-.75,1.78-1.09,2.55-1.77a11.76,11.76,0,0,1,3-2.34,20.6,20.6,0,0,0,2-1.1,13,13,0,0,0,1.75-1.52l-1.09.28c.8.13.1.08.16-.17a2.38,2.38,0,0,0,0,.8c0,.19.38.67.31.25,0,.21-.09.71-.08,1,.09,1.73.7,1.86.37,3.56l1.38-.78A12.11,12.11,0,0,1,46,63.75a38.29,38.29,0,0,1-3.53-2.52c-.44-.35-.69-.79-1.25-1.06a5.76,5.76,0,0,1-1.74-.93,19.38,19.38,0,0,0-2.39-2.11,1.14,1.14,0,0,0-1.66.67,6.18,6.18,0,0,0,0,2.27c.07.7-.09,1.19-.06,1.88,0,.29.37.47.39.75a6.64,6.64,0,0,1-.27,1.11,11.81,11.81,0,0,0,0,2.06c.08,1.44,2.33,1.45,2.25,0-.06-1.29.43-2.56.27-3.82,0-.13-.36-1-.32-.45,0-.26.15-.66.15-1,0-.76-.42-1.48-.22-2.25L36,59.07c1.07.7,1.72,1.82,2.81,2.55.42.28.92.34,1.32.58.6.34.92.86,1.5,1.25,1.17.77,2.3,1.6,3.43,2.43.08.06.57.14.49.09s.2.36.28.41a4,4,0,0,0,1.36.62,1.14,1.14,0,0,0,1.38-.79A13.7,13.7,0,0,0,48,60.09c-.26-1-.27-1.71-1.49-2s-2,.63-2.57,1.66l1-.56A3.16,3.16,0,0,0,43,60c-.66.43-1.47.54-2.13,1-.84.6-1.6,1.45-2.37,2.1a21.61,21.61,0,0,0-2.61,1.95C34.91,66.17,36.49,67.76,37.43,66.66Z"/><path class="cls-6" d="M37.86,48.84c.38.14.77.32,1.15.44s1.32.24,1.07.19a9.22,9.22,0,0,0,2.54,0,6.78,6.78,0,0,0,2.54-.17,5.19,5.19,0,0,0,.7-.31c.6-.35-.7-.07,0,.06a3,3,0,0,0,1.48-.27c1.83-.58,1.05-3.48-.79-2.89-.66.21-1.37.25-2.4.62.41-.15-.3.06-.35.06.37,0-.07-.07-.22-.08l-1,0a5.26,5.26,0,0,0-1.19.09c-.84.22-.16,0,.06.2a2.31,2.31,0,0,0-.61-.21A11.61,11.61,0,0,1,38.66,46c-1.83-.65-2.61,2.25-.8,2.89Z"/><path class="cls-6" d="M127.79,36c-.11-.21-.13-.47-.25-.68s-.24-.42-.36-.63-.36-.34-.48-.54,0-.58-.1-.79-.31-.27-.44-.47c.26,0,.43,0,.69-.05s.53.07.78,0,.47-.31.73-.36.49-.11.58-.35-.1-.47-.16-.69,0-.63-.26-.7a8.51,8.51,0,0,1-1.41-.28c-.23,0-.48.16-.72.15s-.43-.12-.67-.12a5.42,5.42,0,0,0,0-.57c0-.2-.18-.38-.21-.57s-.19-.38-.23-.58.23-.33.23-.48a1.21,1.21,0,0,0-.37-.85c-.23-.19-.6,0-.83.11s-.27.27-.26.64c0,0,0,.09,0,.12-.07.19-.38.41-.31.65,0,.05.25.05.27.1,0,.25-.12.51-.11.76s.11.55.12.8c-.25,0-.55-.15-.8-.15s-.5.12-.75.11-.51,0-.76,0-.56,0-.69.13a1.29,1.29,0,0,0-.17.71,1.13,1.13,0,0,0,.28.63.62.62,0,0,0,.73.31,2.66,2.66,0,0,1,.75,0,4.63,4.63,0,0,1,.74,0l-.08.08c-.1.22,0,.52-.1.73s-.29.39-.38.61-.1.46-.19.68-.16.44-.25.66-.26.4-.34.62-.1.47-.18.69-.22.42-.3.64-.15.45-.23.67-.11.46-.19.68-.44.35-.52.57a1.12,1.12,0,0,0,.17.75c.11.23.28.51.49.57a.79.79,0,0,0,.79-.24c.14-.18.1-.51.23-.71s.38-.32.5-.54,0-.53.09-.75.48-.3.57-.52.21-.43.31-.65-.13-.57,0-.79.32-.29.41-.51c0,.23,0,.38,0,.61s0,.47,0,.7.14.46.15.7.11.46.12.69,0,.47,0,.7-.22.48-.21.71.16.46.17.7-.16.47-.15.7.21.46.22.69.08.47.09.7-.09.47-.08.7a.88.88,0,0,0,.3.72c.24.18.61.37.84.23s.2-.48.2-.85.08-.47.08-.71,0-.47,0-.71-.13-.47-.13-.71,0-.47,0-.71-.1-.47-.11-.71.19-.48.19-.71-.16-.48-.16-.71,0-.48,0-.71.09-.52.09-.75c.11.2.36.37.48.57s.28.39.41.59.1.5.23.69.17.46.31.65.3.37.44.56a.71.71,0,0,0,.61.19.72.72,0,0,0,.58-.19c.13-.14.11-.38.14-.61a2.57,2.57,0,0,0,.05-.73,4.78,4.78,0,0,0-.13-.74,5.93,5.93,0,0,0-.31-.68c-.1-.22-.36-.37-.48-.58S127.89,36.2,127.79,36Z"/><path class="cls-6" d="M135.31,32.31s-.05,0-.05,0a1,1,0,0,0-.51-.45.84.84,0,0,0-.67.06s0,0,0,.05-.06-.08-.08-.07-.08.06-.16.06c0-.2,0-.41,0-.62s.12-.38.14-.59a3.64,3.64,0,0,0,.74-.06.94.94,0,0,0,.63-.56,1,1,0,0,0-.08-.82.79.79,0,0,0-.69-.35c-.2,0-.39-.11-.59-.12,0-.06,0-.1,0-.16s.05-.06.05-.09h0c0-.08-.06-.15-.07-.23a.75.75,0,0,0-.17-.5c-.09-.27-.37-.36-.62-.44a1,1,0,0,0-.76,0,.89.89,0,0,0-.43.69c0,.2.06.45.05.65-.42.08-.44,0-.86-.08a.69.69,0,0,0-.71.08,1,1,0,0,0-.5.58.88.88,0,0,0,.24.75s.08,0,.1.06.07,0,.09,0,0,.05,0,.06.12.14.21.17a2.83,2.83,0,0,0,.66.26,3.45,3.45,0,0,0,.72.08c0,.22,0,.45,0,.67s-.13.23-.17.37a5.15,5.15,0,0,1-.56.16l-.59.09a.74.74,0,0,0-.49.34.91.91,0,0,0-.16.58.85.85,0,0,0,.19.58.76.76,0,0,0,.58.26l.77,0c.26,0,.52,0,.78,0h.78c.19,0,.4,0,.61,0a5.59,5.59,0,0,0,.59-.11,2,2,0,0,0,.61-.06.93.93,0,0,0,.39-.56A.81.81,0,0,0,135.31,32.31Z"/><path class="cls-6" d="M135.43,42.33a2.74,2.74,0,0,1-.55,0c.08-.32.13-.6.18-.92s-.09-.55-.06-.82.19-.51.21-.78a.77.77,0,0,0-.27-.69,1,1,0,0,0,.54-.27.9.9,0,0,0,.37-.54,1,1,0,0,0-.2-.63.79.79,0,0,0-.5-.33,2.45,2.45,0,0,0,.26-.54,4.34,4.34,0,0,0,0-.87,1.81,1.81,0,0,0-.14-.83,1.06,1.06,0,0,0-.5-.39,2,2,0,0,0-.6-.21c-.21,0-.43-.08-.63-.09s-.48,0-.72,0-.49,0-.73.07l-.72,0h-.05s0,0,0,0a1,1,0,0,0-.66.22.72.72,0,0,0-.21.62c0,.23,0,.45.06.68s0,.45.08.67.07.45.13.67.15.43.22.65,0,.48.13.69a.65.65,0,0,0,.23.26.77.77,0,0,0-.05.43c0,.3.14.58.19.87s.13.58.19.87a6.53,6.53,0,0,0,.12,1c-.27,0-.45.08-.71.07a.81.81,0,0,0-.62.18A1,1,0,0,0,130,43a1,1,0,0,0,.2.69.88.88,0,0,0,.65.25c.25,0,.51,0,.76,0s.5.06.75.07.5,0,.75,0,.5.15.75.15.5-.08.75-.08.52.09.82.09a2,2,0,0,0,.78-.23c.25-.1.53-.23.6-.54a1,1,0,0,0-.1-.75,1.06,1.06,0,0,0-.63-.36A.79.79,0,0,0,135.43,42.33Zm-1.67-3.28c-.15.13-.4.33-.42.58s0,.65-.09,1c-.05-.28-.15-.47-.2-.75s0-.57,0-.85l0,0C133.24,39.08,133.52,39,133.76,39.05Zm-.11-2.9c0,.1-.14.2-.17.3a6.58,6.58,0,0,1-.29.78,1.66,1.66,0,0,0,.06.16c-.27,0-.52-.15-.79-.18,0,0,0,0,0,0a7.7,7.7,0,0,1-.3-1,6.39,6.39,0,0,1,.75,0A6.6,6.6,0,0,1,133.65,36.15Z"/><path class="cls-6" d="M142.13,34.45c.08-.23.39-.24.53-.39s-.1-.16-.09-.17c.29,0,.61,0,.76-.17s.06-.52,0-.76,0-.61-.18-.74a2.9,2.9,0,0,0-.59-.24c-.14-.06-.26.05-.36.11a2.94,2.94,0,0,0-.51-.05c0-.27-.21-.48-.23-.75s0-.54,0-.81.08-.55.05-.81-.1-.54-.13-.8a.73.73,0,0,0-.35-.57.79.79,0,0,0-.64,0c-.21.05-.56,0-.7.19a1.15,1.15,0,0,0-.15.75c0,.24.07.48.09.73s.16.48.18.72-.12.51-.09.75.28.58.3.83c-.25,0-.6-.06-.85-.05a6.37,6.37,0,0,0-.78.11c-.27,0-.59,0-.81.07,0,0-.06,0-.07,0a1.52,1.52,0,0,0-.6.91c0,.15.09.31.17.41s0,.19,0,.25,0,0,0,0a.68.68,0,0,0,.22.12.88.88,0,0,0,.53.21c.25,0,.48-.16.73-.17l.74,0c.24,0,.41.07.66.06,0,.25.24.41.26.66s0,.5,0,.76-.1.51-.09.76.14.46.15.69,0,.47.05.7.12.46.13.69,0,.47,0,.7.07.47.08.7a2.11,2.11,0,0,0-.09.56c0,.17,0,.27,0,.47-.17-.14-.35,0-.56,0s-.53-.12-.69,0,0,.43,0,.69-.23.49-.19.71.33.39.43.58.14.48.31.62a1.54,1.54,0,0,0,.65.24,1.83,1.83,0,0,0,.67.06,2.8,2.8,0,0,0,.7,0c.3-.11.42-.53.46-.81a6.61,6.61,0,0,0,.2-.73c0-.25,0-.5,0-.75s-.26-.5-.27-.74.06-.5,0-.75-.1-.48-.12-.73,0-.5,0-.75-.12-.49-.14-.73.07-.51.05-.75.08-.5.06-.75-.26-.19-.27-.29,0-.21.06-.31.23-.35.26-.54S142.07,34.62,142.13,34.45Z"/><path class="cls-6" d="M140,39c0-.23-.12-.45-.16-.67l-.12-.67c-.05-.23-.11-.45-.15-.67s-.07-.45-.11-.68a.79.79,0,0,0-.35-.55.93.93,0,0,0-.67-.13,1,1,0,0,0-.54.4,1.26,1.26,0,0,0-.37.59,2.41,2.41,0,0,0,0,.7,3.32,3.32,0,0,0,.08.69,3.74,3.74,0,0,0,.25.66,4.24,4.24,0,0,0,.37.59s0,.06,0,.1a.86.86,0,0,0,.33.59,1,1,0,0,0,.68,0,.94.94,0,0,0,.6-.32A.83.83,0,0,0,140,39Z"/><path class="cls-6" d="M149.41,37.8c0-.23.18-.46.2-.7s0-.49,0-.73.09-.47.1-.71,0-.48,0-.72.09-.48.09-.72,0-.48,0-.72a1,1,0,0,0-.12-.59.86.86,0,0,0-.29-.64.72.72,0,0,0-.63-.2.94.94,0,0,0-.66.22,1.26,1.26,0,0,0-.22.69c0,.23,0,.47,0,.7s-.1.46-.12.69,0,.47,0,.7,0,.46,0,.7.08.46.08.69,0,.47,0,.7,0,.47,0,.7a1.11,1.11,0,0,0,.22.66,1.15,1.15,0,0,0,.61.28.73.73,0,0,0,.65-.06.85.85,0,0,0,.26-.61c0-.09,0-.19,0-.28h.07S149.41,37.82,149.41,37.8Z"/><path class="cls-6" d="M152,29.12c0-.14,0-.3,0-.44a.86.86,0,0,0-.3-.59c-.18-.2-.3-.53-.54-.53s-.38.31-.55.51-.38.31-.37.61c0,0,.16,0,.16.05s-.19.32-.14.53c0,0,.21.08.22.13,0,.23-.09.48-.08.71s-.16.48-.16.72.08.47.09.7.1.47.11.71.1.47.1.7-.1.48-.09.71-.09.48-.08.72.31.46.32.69-.05.48,0,.71-.13.48-.12.72.09.46.1.7.07.47.08.71,0,.47,0,.7.11.47.12.71l0,.7c0,.24,0,.48,0,.71s-.29.48-.28.72.22.46.23.7,0,.47.06.71a1.21,1.21,0,0,0,.12.7c.17.21.43.16.66.15a.64.64,0,0,0,.57-.24c.13-.16.45-.31.47-.6s-.18-.5-.16-.74.25-.47.26-.71-.27-.5-.25-.75.23-.47.24-.71-.13-.49-.12-.73.23-.48.23-.72-.23-.49-.23-.74.23-.48.23-.72-.22-.48-.22-.72.07-.49.07-.73-.06-.48-.07-.72-.06-.48-.07-.73-.06-.47-.08-.71.25-.51.22-.75-.16-.48-.19-.72-.13-.47-.16-.71,0-.48-.09-.72-.09-.47-.14-.71S152,29.35,152,29.12Z"/><path class="cls-6" d="M155.11,34.1c0-.21-.12-.43-.17-.67s-.08-.46-.11-.69a2.07,2.07,0,0,1,0-.7.88.88,0,0,0-.09-.65,1,1,0,0,0-.54-.4.88.88,0,0,0-.66,0,.75.75,0,0,0-.38.55,3.41,3.41,0,0,0-.05.78,6.64,6.64,0,0,0,.05.77c0,.26.08.51.13.77s.17.43.21.65,0,.47,0,.69.11.44.15.67,0,.46.05.68a.76.76,0,0,0,.44.52.86.86,0,0,0,.65.07,1,1,0,0,0,.51-.43.86.86,0,0,0,.15-.64c0-.22-.1-.44-.14-.66s-.07-.45-.11-.68S155.15,34.32,155.11,34.1Z"/><path class="cls-6" d="M162.14,39.26c-.12-.19-.16-.43-.29-.62s-.45-.24-.58-.42,0-.53-.15-.72-.44-.24-.57-.42-.11-.35-.25-.53c.25,0,.39-.2.63-.21s.43,0,.55-.19a1.2,1.2,0,0,0,.15-.63,1.12,1.12,0,0,0-.26-.61c0-.23.14-.51.16-.77s-.08-.49-.07-.74.32-.52.29-.76-.31-.47-.4-.68a1.25,1.25,0,0,0-.37-.62,1.4,1.4,0,0,0-.58-.11c-.2,0-.41-.24-.61-.23s-.41.27-.59.28,0-.08-.1-.08c0-.19,0-.35,0-.54.26,0,.52-.12.78-.11s.43,0,.55-.16a1.27,1.27,0,0,0,.32-.63,1.37,1.37,0,0,0-.21-.7c-.12-.19-.42-.19-.67-.21s-.49-.15-.77-.16c0-.2-.21-.32-.21-.52s.21-.4.21-.6a.94.94,0,0,0-.31-.58c-.15-.19-.31-.41-.52-.41s-.4.2-.54.39a1,1,0,0,0-.27.6c0,.19.2.37.2.55s-.13.36-.13.54c-.25,0-.48-.15-.73-.17s-.5,0-.74-.06-.5,0-.75,0-.44.24-.56.42a1.19,1.19,0,0,0-.27.63c0,.23.23.41.35.58s.22.53.47.55.51-.23.76-.21.49.26.74.27.6-.2.86-.19c0,.26,0,.69,0,.95-.3,0-.66.11-1,.16,0,0,0-.24,0-.24a1,1,0,0,0-.89.14c-.18.15-.18.48-.16.83s.14.45.16.68-.06.47,0,.7,0,.47,0,.7.28.41.34.63,0,.47.09.69a.86.86,0,0,0,.21.39.52.52,0,0,0,.57.38c.19,0,.27.14.45.14-.09.23-.11.41-.2.64s-.1.5-.19.73-.11.49-.19.73-.26.44-.34.67-.13.49-.22.72-.15.48-.23.72a.89.89,0,0,0,0,.6.84.84,0,0,0,.31.48c.18.16.33.5.53.44a.92.92,0,0,0,.53-.56c.12-.31-.16-.41,0-.73s.14-.3.25-.62a2.32,2.32,0,0,1,.34-.59c0,.22.21.45.22.68s-.13.47-.12.69.1.45.11.68-.15.47-.13.7.2.44.22.67a1.45,1.45,0,0,0,.14.67.94.94,0,0,0,.65.24.73.73,0,0,0,.66-.22c.11-.14-.09-.41-.1-.68l0-.43s.13-.05.13-.07c0-.25.11-.52.09-.78s-.1-.5-.12-.76,0-.51,0-.77-.24-.49-.26-.75,0-.52,0-.77,0-.48-.05-.74c.14.2.36.3.5.5s.22.45.36.65.33.37.47.57.13.5.26.71a.63.63,0,0,0,.59.2.67.67,0,0,0,.49-.28.94.94,0,0,0,.29-.62A1.38,1.38,0,0,0,162.14,39.26Zm-4.69-4.57c-.06-.24,0-.49-.06-.74s-.32-.51-.35-.76c.15,0,.31.12.47.1,0,.25.21.4.22.65s-.16.47-.15.72C157.5,34.66,157.53,34.69,157.45,34.69Zm2.23-1.61c.13,0,.16.05.3.05,0,.26.25.47.23.74s-.29.4-.33.65c-.26,0-.47.18-.73.18,0-.26.14-.58.13-.84S159,33.27,159,33C159.2,33,159.5,33.08,159.68,33.08Z"/><path class="cls-6" d="M168.14,29.21c0-.2-.1-.42-.15-.64a4.64,4.64,0,0,0-.17-.64,1.6,1.6,0,0,0-.38-.54,1.36,1.36,0,0,0-.63-.23,3.39,3.39,0,0,0-.78,0c-.27,0-.53,0-.78,0s-.32.08-.64.1-.33,0-.65,0l-.65.05a.91.91,0,0,0-.61.27,1.08,1.08,0,0,0-.29.62.85.85,0,0,0,.26.62.68.68,0,0,0,.59.26l.86-.05c-.05.26-.12.51-.16.76s-.09.52-.14.77,0,.53,0,.78-.14.51-.18.77a.8.8,0,0,0,.24.66,1,1,0,0,0,.65.2.85.85,0,0,0,.66-.16,1.2,1.2,0,0,0,.21-.65c0-.22.15-.43.18-.65s0-.45,0-.67.13-.43.17-.65,0-.46,0-.68.11-.45.15-.67a3.08,3.08,0,0,1,.42,0c-.05,0,0,.23,0,.33s.06.52.1.77a7.92,7.92,0,0,1,.05.85c0,.1,0,.2,0,.31s0,.07,0,.1a.78.78,0,0,0-.66.3,1,1,0,0,0-.27.71.92.92,0,0,0,.41.64,1.44,1.44,0,0,0,.75.28,1.4,1.4,0,0,0,1.33-.75,2.15,2.15,0,0,0,.27-.76,4.37,4.37,0,0,0,0-.81c0-.27-.1-.54-.14-.8S168.19,29.45,168.14,29.21Z"/><path class="cls-6" d="M168.56,40.56a1.09,1.09,0,0,0,.32-.47,2.06,2.06,0,0,0,.24-.63c0-.22,0-.45,0-.68s0-.47,0-.69-.08-.47-.09-.67,0-.45,0-.69-.09-.44-.1-.67.05-.46,0-.68,0-.47,0-.68a1.5,1.5,0,0,0-.38-.59,1.76,1.76,0,0,0-.58-.35,3.16,3.16,0,0,0-.63-.24,5.07,5.07,0,0,0-.68-.11c-.23,0-.47.06-.69.06s-.46.05-.68.06-.48,0-.68,0a1,1,0,0,0-.72.39c-.18,0-.28.2-.39.34a.68.68,0,0,0-.09.49c0,.23,0,.47,0,.7s0,.48,0,.71.13.45.16.68,0,.47,0,.71.12.45.14.68.09.46.12.69,0,.48,0,.71.17.45.21.68-.06.48,0,.71a.9.9,0,0,0,.43.6,1,1,0,0,0,.7,0c.1.12.24.12.4.15s.41.16.62.2l.63.12c.22,0,.45-.11.66-.1s.42.17.64.18.44-.24.59-.41a.76.76,0,0,0,.19-.62A.78.78,0,0,0,168.56,40.56Zm-1.21-2.33c-.2,0-.44-.06-.64-.09s-.4-.14-.6-.14a4.3,4.3,0,0,0-.62,0s0,0,0,0-.07-.19-.08-.3a2.67,2.67,0,0,1,.63,0c.31,0,.32-.09.63-.08a2.28,2.28,0,0,1,.63.09C167.3,37.9,167.34,38.1,167.35,38.23Zm-.1-2.88a3.64,3.64,0,0,1,.05.75c-.33.1-.37-.1-.71-.11s-.35,0-.69,0-.35.06-.68-.06c0-.23-.07-.44-.09-.67.23,0,.47,0,.7,0s.48-.08.71-.06S167,35.3,167.25,35.35Zm-1.56,4.84c0-.12,0-.35-.05-.47a4.27,4.27,0,0,1,.81.11,3.91,3.91,0,0,1,.76.14.8.8,0,0,0,.1.32c-.21,0-.41,0-.63,0s-.43-.07-.65-.11A1.32,1.32,0,0,0,165.69,40.19Z"/><path class="cls-6" d="M164.47,42.28a4.41,4.41,0,0,0-.19,1,.79.79,0,0,0,.25.62.93.93,0,0,0,.61.27.81.81,0,0,0,.61-.24,1,1,0,0,0,.28-.6,2,2,0,0,1,.14-.48.82.82,0,0,0-.06-.66.93.93,0,0,0-.53-.42,1,1,0,0,0-.67,0A.84.84,0,0,0,164.47,42.28Z"/><path class="cls-6" d="M168.61,42.74c-.16-.23-.31-.47-.47-.69a.73.73,0,0,0-.61-.25,1,1,0,0,0-.65.21.82.82,0,0,0-.26.62,1.16,1.16,0,0,0,.21.64c.17.23.36.44.52.66a.7.7,0,0,0,.6.28.94.94,0,0,0,.63-.25.77.77,0,0,0,.26-.6A1.13,1.13,0,0,0,168.61,42.74Z"/><path class="cls-6" d="M177.74,34.39c0-.24,0-.51,0-.78a3.23,3.23,0,0,0-.22-.75,1.67,1.67,0,0,0-.32-.7,1.83,1.83,0,0,0-.58-.36,3.4,3.4,0,0,0-.64-.2c-.23,0-.46,0-.68,0s-.47-.06-.67-.1-.07-.16-.13-.16a1.21,1.21,0,0,0-.79-.18,1.18,1.18,0,0,0-.74.31,1.08,1.08,0,0,0-.28.74c0,.25,0,.5,0,.74s-.13.49-.13.74,0,.49,0,.73v.74c0,.24.11.49.11.73s-.16.51-.18.79.08.53.08.8a6.88,6.88,0,0,0,0,.79,2.65,2.65,0,0,0,.13.78,1.45,1.45,0,0,0,.37.58,1.51,1.51,0,0,0,.6.35,2.32,2.32,0,0,0,.7.1,3.33,3.33,0,0,0,.69-.12,4.58,4.58,0,0,0,.66-.19,3.14,3.14,0,0,0,.61-.29,1.43,1.43,0,0,0,.52-.4,2.36,2.36,0,0,0,.32-.59,4,4,0,0,0,.26-.63c.05-.22.18-.43.21-.66s-.06-.48,0-.7,0-.47,0-.69.11-.48.11-.69S177.75,34.59,177.74,34.39Zm-2.14.5c0,.22,0,.45,0,.7s.07.47.05.71-.12.46-.16.68a3.66,3.66,0,0,1-.16.69l-.54.11c0-.35,0-.75,0-.87s0-.53,0-.79.16-.53.16-.79-.05-.56-.05-.84,0-.55,0-.83c.07,0,.1-.07.16-.1a2.41,2.41,0,0,1,.69.14,3.56,3.56,0,0,0-.12.61A2.58,2.58,0,0,0,175.6,34.89Z"/><path class="cls-6" d="M186.24,37.44c-.05-.21-.08-.43-.13-.65s-.09-.43-.15-.65-.2-.4-.26-.61-.08-.44-.14-.65-.18-.5-.25-.78a6.59,6.59,0,0,0-.24-.79,2.3,2.3,0,0,0-.38-.73,1.75,1.75,0,0,0-.8-.46c-.29-.06-.64.1-.91.07-.06,0-.09-.08-.14-.09.07-.35.17-.69.24-1.05a1.15,1.15,0,0,0-.08-.67,1,1,0,0,0-.47-.45,1.23,1.23,0,0,0-.61-.24,1,1,0,0,0-.66.18,1,1,0,0,0-.31.6c0,.23,0,.49,0,.72s-.16.47-.2.7l-1-.12a.81.81,0,0,0-.59.18.78.78,0,0,0-.29.5c0,.21-.19.43-.12.65a1.21,1.21,0,0,0,.41.52,1.14,1.14,0,0,0,.59.33l.45,0c0,.24.08.43,0,.67s-.21.46-.25.7,0,.5,0,.74-.13.48-.16.72-.16.47-.2.71-.09.48-.12.72.13.51.09.75-.23.46-.26.71-.08.48-.11.72.16.51.13.75-.1.47,0,.63a.93.93,0,0,0,.55.35,1.31,1.31,0,0,0,.65,0c.21-.07.49-.1.63-.27s.06-.44.09-.68.09-.47.12-.7.14-.46.17-.7-.07-.48,0-.72.2-.45.23-.68.12-.47.15-.7.06-.47.1-.7,0-.48,0-.72.16-.45.2-.68-.11-.5-.07-.74.27-.34.31-.57c.24,0,.44-.06.67,0a6.68,6.68,0,0,1,.13.78c.08.25.16.48.23.73s.26.46.33.7.17.38.24.62,0,.46.1.68a5.63,5.63,0,0,1,.17.68,1.08,1.08,0,0,1-.58-.17s0-.07,0-.08a1.2,1.2,0,0,0-.7,0,1.15,1.15,0,0,0-.59.3,1,1,0,0,0-.37.57,1,1,0,0,0,.26.63,2.32,2.32,0,0,0,.5.44c.18.15.26.45.46.54s.48,0,.7.06a2.58,2.58,0,0,0,.67.14,2.71,2.71,0,0,0,.69-.08c.28-.09.39-.39.55-.55a1.26,1.26,0,0,0,.42-.58,2.49,2.49,0,0,0,0-.73,6.54,6.54,0,0,0,0-.77C186.35,37.94,186.29,37.68,186.24,37.44Z"/><path class="cls-6" d="M191.73,35.64c0-.23,0-.49,0-.75s.1-.5.08-.76-.15-.49-.19-.73-.06-.51-.12-.74a3.56,3.56,0,0,0-.28-.69,1.34,1.34,0,0,0-.6-.48c-.22-.12-.42-.35-.69-.4a7.14,7.14,0,0,0-.8,0c-.28,0-.55,0-.8,0V31a1,1,0,0,0-.73.1,1.75,1.75,0,0,0-.48.54,1.6,1.6,0,0,0-.24.59s0,0,0,0a2,2,0,0,0,.11,1c0,.23.09.46.11.69s0,.46,0,.69,0,.46,0,.69,0,.46.05.69,0,.46,0,.69.08.45.1.68.05.46.07.69.15.44.17.67,0,.46.05.69a1.25,1.25,0,0,0,.13.63c.12.18.35.21.56.28a1.08,1.08,0,0,0,.6.1c.23,0,.49,0,.76-.07a6.86,6.86,0,0,0,.71-.27A3.43,3.43,0,0,0,191,40a1.65,1.65,0,0,0,.58-.5,2.17,2.17,0,0,0,.26-.74,3.91,3.91,0,0,0,0-.77c0-.26.08-.52.07-.78s0-.53,0-.77S191.75,35.86,191.73,35.64Zm-1.91,2.51c-.09,0-.33.06-.42.08,0-.24.08-.52.06-.75s-.15-.47-.17-.7,0-.48,0-.72l-.06-.71c0-.24-.12-.47-.14-.7s.11-.49.09-.73-.1-.45-.12-.69l.38,0a6.72,6.72,0,0,1,.13.7c.05.22.05.45.09.69s.14.44.17.68.06.46.07.69,0,.47,0,.7,0,.48,0,.71S189.86,37.94,189.82,38.15Z"/><path class="cls-6" d="M200.66,33.29c0-.22-.07-.46-.11-.71s-.16-.47-.21-.7a5.4,5.4,0,0,0-.17-.72,2,2,0,0,0-.42-.6,1.76,1.76,0,0,0-.63-.39,4.15,4.15,0,0,0-.73-.1c-.24,0-.49,0-.73,0s-.51,0-.73,0a.9.9,0,0,0-.42.08.87.87,0,0,0-.57.32,1,1,0,0,0-.33.61c0,.26,0,.51,0,.77s.12.51.13.77,0,.51,0,.76,0,.52.05.77.1.51.13.76,0,.46,0,.69,0,.46,0,.68.23.43.27.65a6.45,6.45,0,0,0,.12.66,4.29,4.29,0,0,0,.23.63c.1.24.15.51.32.64a1.65,1.65,0,0,0,.69.22,2.41,2.41,0,0,0,.71.07,3.63,3.63,0,0,0,.69-.21,3.83,3.83,0,0,0,.68-.21c.22-.12.35-.36.51-.5a2.88,2.88,0,0,0,.52-.53A2.54,2.54,0,0,0,201,37a3.64,3.64,0,0,0,0-.74,6.15,6.15,0,0,0,.09-.75c0-.24-.09-.49-.14-.73s-.13-.49-.19-.72S200.71,33.52,200.66,33.29Zm-2.28,3.61a4.4,4.4,0,0,1-.12-.65c0-.24-.16-.46-.18-.71s0-.48,0-.72-.06-.49-.09-.72,0-.42,0-.64-.07-.42-.08-.63-.05-.44-.06-.65c.13,0,.3,0,.43,0,.07.21.17.43.22.65s.1.43.14.64-.05.46,0,.67.1.44.15.64a3.93,3.93,0,0,1,.21.77,2.7,2.7,0,0,1-.06.81A.63.63,0,0,1,198.38,36.9Z"/><path class="cls-6" d="M206.69,42.58c0-.24.12-.48.12-.73s.05-.48.05-.72-.05-.49-.05-.73,0-.48,0-.72-.07-.49-.08-.73.16-.49.16-.73-.09-.48-.1-.72-.17-.48-.19-.72.18-.49.16-.74-.17-.47-.18-.71.05-.49,0-.73,0-.49,0-.73,0-.48,0-.72,0-.49,0-.73-.28-.46-.31-.7.13-.5.11-.74,0-.48-.08-.72-.13-.48-.16-.72-.11-.47-.14-.71a1,1,0,0,0-.27-.6c-.16-.14-.4-.1-.62-.09a1.22,1.22,0,0,0-.62.13c-.18.12-.2.34-.3.55s-.29.34-.26.58.24.43.27.66,0,.45.07.68-.19.48-.16.71c0,0,.12,0,.11,0s-.08,0-.11,0a6.36,6.36,0,0,1-.73-.16,1.29,1.29,0,0,0-.89.1c-.24.13-.3.48-.38.76a1,1,0,0,0,.11.75.84.84,0,0,0,.59.44c.27.06.5.34.77.38s.64-.13.92-.12c0,.28.05.62.07.89s-.06.55,0,.83a5.65,5.65,0,0,1-.58,0c-.21,0-.43.19-.63.16s-.58-.22-.81-.1a1.11,1.11,0,0,0-.56.67,1.28,1.28,0,0,0,.21.82.87.87,0,0,0,.62.53c.26,0,.53,0,.78,0s.52.06.79.05a1.72,1.72,0,0,1,.33.22c0,.25,0,.52,0,.78-.22,0-.45-.14-.67-.16s-.45,0-.67,0a1.09,1.09,0,0,0-.77.18.81.81,0,0,0-.39.6c-.07.27-.26.57-.12.81a1.08,1.08,0,0,0,.7.51c.23,0,.48,0,.72.08s.46.07.7.09a1.42,1.42,0,0,1,.55.41c0,.21-.1.43-.1.65s0,.43,0,.65.16.43.16.65a.77.77,0,0,0,.2.55.8.8,0,0,0,.47.36,1,1,0,0,0,.6-.06c.21-.06.45-.05.59-.23a1.11,1.11,0,0,0,.31-.62c0-.12-.16-.24-.16-.36S206.69,42.6,206.69,42.58Z"/><path class="cls-6" d="M212.67,39.35c-.25,0-.49-.07-.73-.09s-.47-.1-.71-.14-.53.06-.77,0c0-.06,0-.27,0-.34,0-.26.06-.51,0-.77.06-.1,0-.2.06-.3s.06,0,.1-.09c.34,0,.68.07,1,.08s.45-.28.65-.48.5-.37.5-.65a1.19,1.19,0,0,0-.38-.77,1.27,1.27,0,0,0-.77-.41l-.62,0c-.21,0-.41,0-.61,0s-.27,0-.35-.09c0-.25-.06-.52-.08-.77s.08-.51.06-.76c.07-.08.1-.25.19-.29a3.84,3.84,0,0,1,.59.11,3.6,3.6,0,0,1,.54.22.9.9,0,0,0,.79-.15c.24-.15.6-.31.67-.56a1.27,1.27,0,0,0-.13-.91c-.14-.23-.51-.28-.78-.39a4.27,4.27,0,0,0-.61-.18,4.43,4.43,0,0,0-.63,0,4.89,4.89,0,0,0-.64-.14,2.11,2.11,0,0,1-.27-.18c0-.29.15-.62.13-.91s0-.6-.07-.9a1.23,1.23,0,0,0-.32-.62c-.14-.17-.31-.41-.52-.47a1.46,1.46,0,0,0-.72,0,1.18,1.18,0,0,0-.59.41c-.11.16,0,.42,0,.68s-.12.28-.11.41,0,.5,0,.75,0,.49,0,.74-.19.49-.2.73,0,.5,0,.75,0,.49,0,.74,0,.5,0,.74,0,.5,0,.75.07.49.09.74.07.49.08.73.23.48.25.73-.21.51-.19.76.26.47.29.72-.2.51-.18.76a3.88,3.88,0,0,1,.22.7c0,.22.09.46.1.71s-.16.49-.14.73.21.46.25.7a7,7,0,0,0,.19.69,3.19,3.19,0,0,0,.21.68,1.72,1.72,0,0,0,.45.6,1.55,1.55,0,0,0,.76.18c.08,0,.11-.28.17-.32a.91.91,0,0,0,.61-.24c.12-.17.08-.36.06-.64s0-.55,0-.83,0-.56,0-.83c.1-.11.36,0,.61-.08s.39-.27.59-.28.59.18.89.18.38-.2.54-.32.44-.2.5-.41a1.27,1.27,0,0,0-.11-.66c-.06-.21-.07-.5-.25-.64S212.92,39.36,212.67,39.35Z"/><path class="cls-6" d="M5.44,51c-.56.92-1.63,1.65-2.27,2.79a18.79,18.79,0,0,0-1.3,3.54c-.55,1.7-1,1.76-1.25,2.84C.3,61.5,1,62.26.21,63.36a1.51,1.51,0,0,0,.23,1.82l.68.74L.73,64.46A5.93,5.93,0,0,0,.5,66.15c.06-.38-.17.13-.21.86C.23,68.1.91,69.2.57,70.2,0,72,2.85,72.82,3.46,71c.67-2-.52-4.09.16-5.74a1.48,1.48,0,0,0-.38-1.46l-.68-.75.24,1.82c.92-1.36.59-2.36.79-3.81-.06.43.17-.29.47-1a12.79,12.79,0,0,0,.52-1.46,17.83,17.83,0,0,1,1.18-3.38c.63-1.13,1.56-1.62,2.27-2.79C9,50.82,6.45,49.31,5.44,51Z"/><path class="cls-6" d="M134.06,53.55a.75.75,0,0,0-.53.25,1.15,1.15,0,0,0-.28.91c0,.66.49,1,1.39,1h.51a1.88,1.88,0,0,1,2,2.08,1.7,1.7,0,0,1-.81,1.55,1.94,1.94,0,0,1-.69.25,5.76,5.76,0,0,1-.64,0h-1.7c-.3,0-.44-.16-.44-.47a.39.39,0,0,1,.44-.44h1.39c1,0,1.47-.34,1.5-1a.92.92,0,0,0-.48-1,.81.81,0,0,0-.39-.12l-.14,0-.67,0a3.23,3.23,0,0,1-1.31-.31,1.71,1.71,0,0,1-.87-1.53,1.92,1.92,0,0,1,.63-1.6,1.76,1.76,0,0,1,1.29-.53h2.14a.46.46,0,0,1,0,.91Z"/><path class="cls-6" d="M139.6,53.11v6.08q0,.45-.42.45c-.28,0-.42-.16-.42-.47V53.11c0-.3.14-.44.42-.44S139.59,52.81,139.6,53.11Z"/><path class="cls-6" d="M143.88,59.55a2.3,2.3,0,0,1-.71.09,1.86,1.86,0,0,1-1.07-.39,1.51,1.51,0,0,1-.63-1.15l0-.5A2.65,2.65,0,0,1,142,56a2.1,2.1,0,0,1,1-.69,1.42,1.42,0,0,1,.44-.06l.17,0,.1,0a1.66,1.66,0,0,1,1.07.37,1.6,1.6,0,0,1,.62,1.15l0,.5a2.67,2.67,0,0,1-.58,1.6l0,0a1.75,1.75,0,0,1-1,.61Zm-1.34-1.39a.84.84,0,0,0,.57.75.72.72,0,0,0,.32,0,1,1,0,0,0,.87-.69l.1-.5,0-.49,0-.52-.06-.27-.1-.22a.6.6,0,0,0-.42-.32h-.31a1,1,0,0,0-.86.69l-.11.52,0,.47Z"/><path class="cls-6" d="M149.34,58.93q.33,0,.33.3a.28.28,0,0,1-.25.3.88.88,0,0,1-.42.11h-.08c-.9,0-1.33-.39-1.29-1.22V56.79h-.27c-.15,0-.22-.08-.22-.23a.18.18,0,0,1,.2-.2h.29v-.72a.36.36,0,0,1,.72,0v.74h.91a.18.18,0,0,1,.2.2c0,.15-.07.23-.22.23h-.89v1.49c0,.47.11.73.33.77a.73.73,0,0,0,.36,0l.1,0,.08-.08Z"/><path class="cls-6" d="M152.4,53.11V55.6l.13-.11.22-.1a1.94,1.94,0,0,1,.72-.12,1.15,1.15,0,0,1,.83.33,1.29,1.29,0,0,1,.43,1v2.58a.43.43,0,0,1-.49.45.42.42,0,0,1-.48-.47l0-2.71,0-.18a.48.48,0,0,0-.31-.28.79.79,0,0,0-.54,0,1,1,0,0,0-.45.34v2.81a.42.42,0,0,1-.48.45.43.43,0,0,1-.49-.47V53.11c0-.3.17-.44.49-.44S152.39,52.81,152.4,53.11Z"/><path class="cls-6" d="M167,59.64a3.11,3.11,0,0,1-1.29-.27,3.26,3.26,0,0,1-1.07-.72,3.18,3.18,0,0,1-.71-1.07,3.31,3.31,0,0,1-.26-1.32A3.26,3.26,0,0,1,164,55a3.08,3.08,0,0,1,.71-1.07,3.45,3.45,0,0,1,1.07-.73,3.27,3.27,0,0,1,1.29-.26,3.31,3.31,0,0,1,1.42.32.6.6,0,0,1,.22.16.43.43,0,0,1,.1.29.47.47,0,0,1-.14.32.41.41,0,0,1-.31.12.43.43,0,0,1-.22-.06A2.43,2.43,0,0,0,167,53.8a2.51,2.51,0,0,0-1,.18,2.34,2.34,0,0,0-1.31,1.31,2.69,2.69,0,0,0-.18,1,2.65,2.65,0,0,0,.18,1,3.07,3.07,0,0,0,.52.77,2.64,2.64,0,0,0,.79.54,2.4,2.4,0,0,0,2.28-.22.49.49,0,0,1,.33-.14.45.45,0,0,1,.32.14.5.5,0,0,1,.12.33.44.44,0,0,1-.2.38A3.28,3.28,0,0,1,167,59.64Z"/><path class="cls-6" d="M173.29,59.55a2.24,2.24,0,0,1-.7.09,1.84,1.84,0,0,1-1.07-.39,1.51,1.51,0,0,1-.63-1.15l0-.5a2.65,2.65,0,0,1,.59-1.58,2.06,2.06,0,0,1,1-.69,1.42,1.42,0,0,1,.44-.06l.16,0,.1,0a1.64,1.64,0,0,1,1.07.37,1.57,1.57,0,0,1,.63,1.15l0,.5a2.68,2.68,0,0,1-.59,1.6l-.12.16a1.39,1.39,0,0,1-.76.47ZM172,58.16a.84.84,0,0,0,.57.75.69.69,0,0,0,.32,0,1,1,0,0,0,.87-.69l.1-.5,0-.49,0-.52-.06-.27-.1-.22a.64.64,0,0,0-.43-.32h-.3a1,1,0,0,0-.87.69l-.1.52,0,.47Z"/><path class="cls-6" d="M177,56.32c-.19,0-.28-.09-.28-.24s.1-.24.3-.24h.37V54.75q-.09-1.39,1.77-1.38h.12a1.92,1.92,0,0,1,.59.1c.22.06.32.18.32.37s-.14.34-.42.34a.51.51,0,0,1-.28-.08l-.16-.06a1,1,0,0,0-.49,0c-.3.05-.44.35-.44.89v.91h1.23c.19,0,.28.08.28.24s-.09.23-.28.24h-1.23v2.93c0,.27-.19.41-.51.41s-.5-.15-.5-.43V56.32Z"/><path class="cls-6" d="M181.94,56.32c-.19,0-.28-.09-.28-.24s.1-.24.3-.24h.37V54.75q-.09-1.39,1.77-1.38h.12a1.92,1.92,0,0,1,.59.1c.22.06.32.18.32.37s-.14.34-.42.34a.51.51,0,0,1-.28-.08l-.16-.06a1,1,0,0,0-.49,0c-.3.05-.44.35-.44.89v.91h1.23c.19,0,.28.08.28.24s-.09.23-.28.24h-1.23v2.93c0,.27-.19.41-.51.41s-.5-.15-.5-.43V56.32Z"/><path class="cls-6" d="M188.22,59.64a1.83,1.83,0,0,1-1.06-.39,1.62,1.62,0,0,1-.64-1.13l-.06-.5A2.7,2.7,0,0,1,186.9,56a1.77,1.77,0,0,1,.93-.69l.41-.06h.24a1.9,1.9,0,0,1,1,.28,1.54,1.54,0,0,1,.64,1,1.58,1.58,0,0,1,0,.41v0c0,.56-.4.89-1.18,1a4,4,0,0,1-.91,0l-.36,0-.24,0,.06.34c.11.43.29.69.56.77a.8.8,0,0,0,.31,0,1.27,1.27,0,0,0,1.09-.45c.12-.13.23-.16.34-.08s.12.2,0,.35a1.62,1.62,0,0,1-1,.78A2,2,0,0,1,188.22,59.64Zm.06-3.68a.87.87,0,0,0-.67.46,1.67,1.67,0,0,0-.16.75l.14.1.26.12a2.07,2.07,0,0,0,.87.06c.39,0,.53-.29.42-.8a1.35,1.35,0,0,0-.18-.43.64.64,0,0,0-.38-.26Z"/><path class="cls-6" d="M193.28,59.64a1.78,1.78,0,0,1-1.05-.39,1.6,1.6,0,0,1-.65-1.13l-.06-.5A2.7,2.7,0,0,1,192,56a1.77,1.77,0,0,1,.93-.69l.41-.06h.24a1.9,1.9,0,0,1,1,.28,1.54,1.54,0,0,1,.64,1,1.58,1.58,0,0,1,.05.41v0c0,.56-.4.89-1.18,1a4,4,0,0,1-.91,0l-.36,0-.24,0,.06.34c.11.43.29.69.56.77a.8.8,0,0,0,.31,0,1.27,1.27,0,0,0,1.09-.45c.12-.13.23-.16.34-.08s.12.2,0,.35a1.62,1.62,0,0,1-1,.78A2,2,0,0,1,193.28,59.64Zm.06-3.68a.87.87,0,0,0-.67.46,1.82,1.82,0,0,0-.16.75l.14.1.26.12a2.07,2.07,0,0,0,.87.06c.39,0,.53-.29.43-.8a1.6,1.6,0,0,0-.19-.43.64.64,0,0,0-.38-.26Z"/><path class="cls-6" d="M203.82,49.27a3.72,3.72,0,0,0-2.44-.79c-1,.07-1.65.75-2.57.94-.71.15-1.33.14-1.74.87a6.12,6.12,0,0,0-.13,2.83,4.57,4.57,0,0,1-.17.9c-.05.39-.21.52-.15.9a.81.81,0,0,0,1.47.19l.36-.75a1,1,0,0,0,.06-.18c1.82.17,4.32.48,5.77-.71S205.25,50.33,203.82,49.27ZM199.27,53h-.72a.2.2,0,0,1-.22-.31l.54-1.06h-.5c-.14,0-.19-.1-.16-.24a.18.18,0,0,1,.23-.17h.72a.19.19,0,0,1,.16,0h0a.2.2,0,0,1,.06.18l0,.1-.53,1h.49a.19.19,0,0,1,.17.25A.17.17,0,0,1,199.27,53ZM201.56,52h-.72a.17.17,0,0,1-.17,0,.19.19,0,0,1,0-.29l.54-1h-.5a.18.18,0,0,1-.16-.24c0-.14.1-.2.23-.17h.72a.2.2,0,0,1,.16,0h0a.2.2,0,0,1,.06.18l0,.1-.53,1h.49c.14,0,.2.11.17.24S201.69,52,201.56,52Zm2.56.65h-.71a.21.21,0,0,1-.17,0,.18.18,0,0,1-.05-.28l.53-1.05h-.49a.17.17,0,0,1-.16-.23c0-.14.09-.2.23-.18H204a.21.21,0,0,1,.15,0h0a.19.19,0,0,1,.06.17l-.05.1-.52,1h.49c.14,0,.2.11.17.24A.18.18,0,0,1,204.12,52.63Z"/></g></svg>